<?xml version="1.0" encoding="utf-8"?>
<!-- Generator: Adobe Illustrator 14.0.0, SVG Export Plug-In  -->
<!DOCTYPE svg PUBLIC "-//W3C//DTD SVG 1.1//EN" "http://www.w3.org/Graphics/SVG/1.1/DTD/svg11.dtd" [
	<!ENTITY ns_flows "http://ns.adobe.com/Flows/1.0/">
]>
<svg version="1.1"
	 xmlns="http://www.w3.org/2000/svg" xmlns:xlink="http://www.w3.org/1999/xlink" xmlns:a="http://ns.adobe.com/AdobeSVGViewerExtensions/3.0/"
	 x="0px" y="0px" width="792px" height="612px" viewBox="-38.554 -34.05 792 612"
	 style="enable-background:new -38.554 -34.05 792 612;" xml:space="preserve">
<defs>
	<style>
	line, rect {
	fill:none;
	stroke:#A4E449;
	stroke-width:8;
	}
	</style>
</defs>
<rect x="0.554" y="0.554" width="715.464" height="532.473"/>
<rect x="22.316" y="24.553" width="671.203" height="91.495"/>
<rect x="455.702" y="137.047" width="233.226" height="235.083"/>
<line x1="22.316" y1="143.047" x2="423.532" y2="143.047"/>
<line x1="22.316" y1="175.773" x2="423.532" y2="175.773"/>
<line x1="22.316" y1="208.499" x2="423.532" y2="208.499"/>
<line x1="22.316" y1="241.225" x2="423.532" y2="241.225"/>
<line x1="22.316" y1="273.952" x2="423.532" y2="273.952"/>
<line x1="22.316" y1="306.677" x2="423.532" y2="306.677"/>
<line x1="22.316" y1="339.403" x2="423.532" y2="339.403"/>
<line x1="22.316" y1="372.129" x2="423.532" y2="372.129"/>
<line x1="22.316" y1="404.856" x2="688.928" y2="404.856"/>
<line x1="22.316" y1="437.582" x2="688.928" y2="437.582"/>
<line x1="22.316" y1="470.307" x2="688.928" y2="470.307"/>
<line x1="22.316" y1="503.034" x2="688.928" y2="503.034"/>
</svg>
